
<svg xmlns="http://www.w3.org/2000/svg" xmlns:xlink="http://www.w3.org/1999/xlink" version="1.1" id="Layer_1" x="0px" y="0px" width="100%" viewBox="0 0 526 526" enable-background="new 0 0 526 526" style="border-Radius:50%" xml:space="preserve">
<path fill="#FEFEFE" opacity="1.000000" stroke="none" d=" M527.000000,186.000000   C527.000000,298.473389 526.981140,410.446808 527.085083,522.420105   C527.088440,526.018799 526.514099,527.108704 522.581909,527.105896   C350.122955,526.983154 177.663925,526.984070 5.204991,527.105957   C1.478241,527.108582 0.910983,526.192383 0.912989,522.706848   C1.012259,350.247894 1.010620,177.788895 0.922266,5.329926   C0.920534,1.950468 1.336460,0.883445 5.168181,0.886357   C177.793732,1.017548 350.419403,1.014165 523.044983,0.900114   C526.557739,0.897794 527.097046,1.715245 527.090210,5.043311   C526.966370,65.195351 527.000000,125.347710 527.000000,186.000000  z"/>
<path fill="#242022" opacity="1.000000" stroke="none" d=" M273.250549,503.633087   C265.947571,503.868988 258.972443,503.892059 251.533966,503.887177   C244.101608,502.227173 236.929581,502.406250 229.869659,501.484436   C196.690170,497.152374 165.927475,486.107880 137.447357,468.687622   C107.456253,450.343140 82.733963,426.407715 63.312332,397.141663   C48.491161,374.807892 37.842846,350.624573 30.942333,324.599518   C23.229641,295.511353 22.153265,266.111237 24.705547,236.452591   C26.410519,216.640045 31.349972,197.441391 38.227020,178.783340   C44.753666,161.075958 53.614494,144.560333 64.039017,128.846863   C80.436226,104.130432 101.126518,83.615578 125.130547,66.371223   C140.755661,55.146233 157.780151,46.477306 175.616150,39.328911   C187.537933,34.550846 199.872345,30.948349 212.365387,28.379736   C223.718948,26.045404 235.297943,24.307472 246.981598,24.003664   C248.140411,23.973532 249.322006,24.109411 250.743958,23.355141   C258.045868,23.121553 265.021667,23.104513 272.460022,23.121284   C279.531158,25.017252 286.403442,24.583694 293.136963,25.386477   C312.571167,27.703447 331.160767,32.894585 349.396729,39.888485   C374.697693,49.591972 397.484711,63.442139 417.875031,81.087311   C435.571594,96.401382 450.758636,114.004875 463.389343,133.835800   C480.976379,161.448486 492.532898,191.408722 497.693939,223.587189   C501.462738,247.085419 502.275421,270.707489 498.861084,294.618835   C495.388947,318.934845 489.025116,342.186066 478.917267,364.382416   C460.411865,405.019348 432.301605,437.696106 395.480316,462.926208   C380.180908,473.409424 363.756683,481.628113 346.454529,488.275024   C323.265778,497.183319 299.335297,502.212952 274.523224,503.115814   C274.197540,503.127686 273.884552,503.282440 273.250549,503.633087  z"/>
<path fill="#716F70" opacity="1.000000" stroke="none" d=" M250.607574,23.031513   C247.724594,26.380623 243.217865,25.229279 239.415863,25.552254   C220.463318,27.162237 201.902084,30.954121 184.130203,37.263077   C155.440079,47.447971 129.200058,62.206200 106.306015,82.701813   C92.976616,94.634789 80.655807,107.364555 70.205452,121.872490   C56.830475,140.440582 46.132122,160.404053 38.248466,181.943024   C25.841780,215.839417 22.783428,250.928589 25.260212,286.527222   C26.161610,299.482941 29.115335,312.330658 32.372475,325.087555   C38.844585,350.436218 49.462051,373.746002 63.624325,395.565887   C83.049500,425.494385 108.384544,449.395996 138.556381,468.221985   C152.934601,477.193451 168.338440,484.279327 184.300568,489.790405   C205.056335,496.956573 226.580688,500.895599 248.539841,502.250244   C249.285538,502.296234 249.999207,502.861267 250.899200,503.521790   C235.584991,505.214294 220.611298,501.921661 205.782227,498.314728   C176.916840,491.293701 150.130630,479.358246 125.763039,462.315155   C99.414795,443.886841 77.581886,421.100037 60.127193,394.010406   C44.159916,369.229187 33.069515,342.471100 27.043760,313.727722   C20.737663,283.647125 20.112337,253.364090 25.270752,222.938004   C29.619537,197.287399 37.773468,172.973785 50.002274,150.114044   C64.984352,122.107521 84.645676,97.773560 109.117691,77.395752   C128.443420,61.303238 149.745087,48.454121 173.064072,39.164879   C189.764252,32.512272 207.050217,27.814112 224.886200,24.871796   C233.336319,23.477823 241.683868,23.022348 250.607574,23.031513  z"/>
<path fill="#716F70" opacity="1.000000" stroke="none" d=" M273.386292,503.950256   C276.934235,500.289093 282.047394,501.961426 286.552032,501.395203   C298.762177,499.860413 310.966461,498.232941 322.778473,494.912476   C338.179352,490.583130 353.066467,484.871765 367.546448,477.815399   C387.290283,468.193787 405.063721,455.892975 421.257904,441.308350   C437.379211,426.789398 451.356506,410.312134 462.900879,391.873016   C474.555817,373.257172 483.381470,353.396637 489.667297,332.322205   C497.089142,307.439117 500.897644,282.057587 499.820892,256.170319   C499.105377,238.968323 496.942230,221.878967 492.565399,205.047928   C487.274933,184.703552 479.943054,165.321518 469.812744,146.908188   C457.027161,123.668503 440.597534,103.382668 421.144012,85.462502   C403.148132,68.885124 382.822815,55.632866 360.633118,45.626728   C347.332855,39.629139 333.428253,34.925224 319.089111,31.354877   C304.485199,27.718601 289.719788,26.350412 274.913269,24.693649   C274.326294,24.627972 273.786743,24.138327 273.073853,23.500662   C288.254761,21.514860 303.031616,25.042814 317.691254,28.538527   C346.449829,35.396255 373.107208,47.242062 397.450256,64.098434   C433.433533,89.015129 460.859344,121.337753 479.439056,160.884949   C493.380524,190.559555 500.936432,221.914062 501.944031,254.840851   C502.630768,277.283142 500.813141,299.455597 495.346039,321.166626   C486.415283,356.632385 470.529053,388.694458 447.193237,417.066132   C424.056396,445.195862 396.100159,467.077271 363.235840,482.521851   C343.157959,491.957428 322.052765,498.305023 300.068848,502.082031   C291.275818,503.592712 282.618988,503.829803 273.386292,503.950256  z"/>
<path fill="#F6F6F6" opacity="1.000000" stroke="none" d=" M137.712067,184.302780   C137.995529,183.998032 138.262802,183.772751 138.291885,183.600403   C146.540787,171.055374 158.072083,162.866333 171.794205,157.832123   C183.038605,153.706894 194.606323,151.366013 206.808273,151.404984   C278.436859,151.633835 350.066528,151.519150 421.695831,151.511551   C424.192902,151.511292 426.706085,151.706284 429.183594,151.360748   C431.789246,150.997314 433.320709,152.082169 434.175293,154.934464   C433.758881,165.841797 431.879913,176.138062 430.380798,186.476624   C427.998657,202.904739 425.913086,219.374832 423.381897,235.781021   C422.811371,239.478973 423.010620,243.905807 417.915680,244.677170   C414.785614,245.151047 412.697174,242.002075 411.841522,235.716583   C410.000122,222.189743 407.247925,208.844910 403.613434,195.702652   C401.346405,187.505142 398.352295,179.498322 392.821136,172.845932   C386.376404,165.094681 378.365967,160.367935 367.870453,160.417526   C344.382385,160.528488 320.893402,160.436737 297.404816,160.461472   C291.100922,160.468109 290.643433,160.446976 289.940460,166.356827   C288.312622,180.041641 286.301025,193.677170 284.213898,207.283554   C281.771851,223.203735 280.169525,239.238907 277.359161,255.104385   C276.426819,260.367828 276.732513,260.360809 281.940338,259.901276   C289.415283,259.241730 296.953552,259.272614 304.409302,259.740601   C314.367828,260.365753 321.281921,255.879471 326.819336,248.302063   C335.956757,235.798355 341.108307,221.348602 346.767212,207.161194   C348.675171,202.377747 350.394684,197.514023 352.208771,192.690247   C353.352478,189.649170 355.353973,188.507767 358.392548,189.157074   C361.480774,189.816986 361.492096,192.423737 361.317047,194.717514   C360.747833,202.174759 359.284790,209.521942 358.267487,216.925415   C355.782318,235.011414 352.919006,253.047180 350.553711,271.148041   C348.254059,288.746582 345.105103,306.222931 343.200378,323.878998   C342.740784,328.139313 341.309723,332.257233 341.166290,336.638123   C341.056122,340.002502 339.576569,342.953308 335.479218,342.873596   C331.381073,342.793915 331.010040,339.566040 330.622131,336.523376   C329.004059,323.831238 328.653717,311.003632 326.591736,298.360199   C325.330963,290.629578 323.777191,283.019806 319.260559,276.316071   C316.202759,271.777557 312.178528,269.474640 306.745941,269.465759   C297.916931,269.451324 289.083344,269.618317 280.261078,269.385803   C276.406525,269.284180 274.925659,270.844208 274.478851,274.418549   C272.151917,293.032593 269.145233,311.558746 266.778229,330.159454   C264.933685,344.654755 262.665863,359.083344 260.717285,373.559204   C260.180237,377.549072 262.322205,377.548584 265.065643,377.548859   C278.559082,377.550293 292.052521,377.539764 305.545959,377.548950   C306.878632,377.549835 308.211487,377.536987 309.543976,377.555847   C317.827972,377.673065 318.793213,379.071411 315.798950,387.417175   C313.092468,388.857422 310.560760,388.604004 308.081329,388.605225   C267.974365,388.624817 227.867386,388.621399 187.760422,388.616638   C184.760880,388.616302 181.764893,388.584198 178.404221,387.615021   C175.803360,386.496948 173.525101,386.238312 170.763000,386.373779   C168.972992,386.397278 167.602325,386.385193 165.828613,386.356873   C164.626297,386.328308 163.828308,386.289032 162.643753,386.144012   C161.235062,385.898407 160.278824,385.482452 158.900650,385.161133   C152.410187,383.546082 146.132690,382.833771 140.034851,381.088287   C129.349762,378.029785 119.533752,373.350525 110.298561,366.574280   C109.791924,366.258759 109.594292,366.129608 109.128372,365.777527   C108.003647,364.532623 107.454155,363.288605 106.434563,362.006897   C106.348206,361.691498 106.115845,361.894714 106.215515,361.776855   C99.401970,355.400848 95.402168,347.351471 94.039459,338.413300   C90.167419,313.016266 99.502464,293.244781 120.815735,279.078705   C129.421478,273.358795 138.785629,269.601990 148.750381,266.576172   C156.768677,264.141418 164.955536,263.282104 173.120575,260.994141   C164.520355,258.406799 155.935593,255.848160 148.255249,250.322083   C147.971161,250.066223 147.757370,249.778900 147.582504,249.740326   C145.626389,249.193085 144.805206,247.509796 143.214233,246.255844   C142.972137,246.039536 142.999069,245.999115 142.980225,246.014679   C141.595215,245.047058 139.939026,244.356873 139.182953,242.303375   C138.762268,241.809845 138.575058,241.534332 138.157623,241.151428   C132.221497,234.447266 128.971420,226.808853 128.649643,218.086105   C128.206467,206.073181 130.381287,194.685760 137.712067,184.302780  z"/>
<path fill="#585656" opacity="1.000000" stroke="none" d=" M315.721252,386.787628   C318.087555,379.386322 317.707397,378.868774 310.084900,378.878082   C294.753815,378.896759 279.421722,378.811859 264.092377,378.981110   C260.001160,379.026306 258.773254,377.518524 259.333557,373.595978   C264.085754,340.325775 268.792084,307.048859 273.399231,273.758301   C273.948181,269.791595 275.400330,267.838837 279.752472,268.001373   C287.241211,268.280975 294.781647,268.543884 302.239227,267.990143   C315.671326,266.992798 321.229156,273.872101 324.859619,285.251343   C329.200836,298.858276 329.533020,313.100525 330.966766,327.158539   C331.337708,330.795441 331.559265,334.448090 331.959869,338.081329   C332.182098,340.097015 332.491516,342.174011 335.329224,342.120605   C337.866730,342.072815 339.565674,340.962646 339.717377,338.346802   C340.027191,333.006073 341.329529,327.829987 342.096558,322.569244   C345.646973,298.218445 349.055481,273.847046 352.518860,249.483566   C355.069489,231.541107 357.658020,213.603912 360.137848,195.651688   C360.429138,193.542847 361.670441,190.714111 358.220001,189.874054   C355.231262,189.146393 353.899841,190.766068 352.832581,193.572464   C346.630981,209.879730 341.169159,226.505081 332.651184,241.848602   C329.962799,246.691223 326.737732,251.107986 322.683533,254.891251   C318.376770,258.910156 313.333801,261.132416 307.367401,261.167542   C298.206543,261.221497 289.044128,261.257812 279.886353,261.471222   C276.248810,261.556000 275.227081,260.154968 275.755341,256.623383   C279.053864,234.572357 282.237091,212.504013 285.417389,190.435471   C286.697510,181.552658 288.001221,172.669617 289.032532,163.756393   C289.428619,160.332886 291.138855,159.145065 294.266541,159.147461   C320.263062,159.167419 346.298248,158.336746 372.240234,159.531952   C385.720551,160.153015 394.412750,169.898621 399.850159,182.083038   C407.125244,198.385269 409.808350,215.845367 412.815948,233.224899   C413.213379,235.521484 413.530090,237.833206 413.833496,240.144577   C414.138977,242.471497 415.355042,243.792816 417.763458,243.790710   C420.230316,243.788544 421.152252,242.392960 421.483826,240.042511   C423.600769,225.036484 425.850433,210.049240 428.005035,195.048462   C429.825714,182.372757 431.576904,169.687088 433.573608,156.643326   C434.415009,156.305878 434.948517,156.541504 435.593353,157.387634   C436.454956,163.157837 435.174683,168.381485 434.527069,173.643814   C432.787476,187.779633 430.602570,201.849487 428.437500,215.926346   C427.284302,223.423981 426.386658,231.024155 425.492920,238.592316   C425.298492,240.238403 425.440002,241.934753 424.032257,243.643616   C420.127014,246.095963 416.506561,246.341843 412.487427,244.118286   C410.177429,242.481445 410.244843,240.298019 409.968872,238.124130   C408.718658,228.274826 406.602905,218.561539 404.528503,208.876678   C402.140259,197.726456 398.614075,186.846237 393.255066,176.261536   C393.061401,175.933472 393.056549,176.008041 393.071777,175.973251   C391.452209,174.533844 390.002960,172.939835 388.273315,171.173340   C388.068359,170.923920 387.996979,170.993927 388.035645,170.963272   C381.807526,165.845795 374.930267,163.205780 366.565948,163.345688   C344.256195,163.718872 321.936127,163.464661 299.620148,163.477676   C294.000214,163.480957 292.115967,164.913666 291.602051,170.444519   C290.068268,186.951233 286.413330,203.182999 285.319305,219.743179   C285.187500,221.738129 284.820862,223.719666 283.201294,225.694550   C282.862732,226.416779 282.816803,226.800781 282.767670,227.475006   C284.203857,235.688980 281.102173,243.143341 280.356506,250.842163   C279.717224,257.443054 279.715363,257.549377 286.370239,257.567017   C292.177551,257.582397 297.997314,257.333710 303.788940,257.633789   C310.037415,257.957520 315.560699,256.439301 320.779358,252.331161   C321.086639,252.056961 321.003052,252.015915 321.032654,252.051849   C323.874115,248.788727 327.080688,245.770615 328.829285,241.300339   C329.084625,241.067566 329.000153,241.004013 329.036896,241.042175   C330.141357,240.033386 330.513855,238.500870 331.844299,237.266357   C332.090271,237.067093 332.084290,237.020706 332.070953,237.039612   C332.860962,232.954163 335.024384,229.383087 336.826294,225.309967   C337.089172,225.052704 337.034058,224.990372 337.045593,225.030304   C337.668854,224.197357 337.939240,223.112976 339.026184,222.214325   C344.567474,212.757797 346.864288,202.244659 351.268524,192.583221   C353.664093,187.328217 356.846069,186.430618 362.414734,189.893280   C364.998840,195.798996 363.397583,201.361618 362.095062,207.362274   C361.922119,208.370850 361.735168,208.916626 361.143707,209.744492   C360.544159,210.825806 360.241547,211.588150 359.930206,212.660797   C362.107910,215.930878 360.728760,219.263504 360.248718,222.139191   C357.765289,237.016800 355.666626,251.963608 353.503937,266.875580   C352.080353,276.691406 350.801697,286.585175 349.287262,296.392365   C348.052917,304.385986 348.166473,312.627686 345.159729,320.719421   C344.833099,321.452515 344.799744,321.851593 344.775146,322.551025   C346.144562,324.634735 344.675781,326.498657 344.894958,328.717346   C343.600708,333.522705 343.865204,338.313293 341.126953,342.680969   C336.845459,344.324646 332.962128,345.125793 329.552917,340.975098   C326.429565,337.736694 327.288177,333.831207 327.154480,330.352539   C326.676361,317.910248 324.810089,305.668854 322.855835,293.406128   C321.955597,287.757355 320.536438,282.455383 317.364319,277.665131   C315.124969,274.283447 312.382202,272.276459 307.977539,272.393127   C299.331421,272.622192 290.672150,272.540283 282.021332,272.414062   C279.002869,272.370056 277.525421,273.225464 277.073883,276.435730   C275.479980,287.767120 273.966400,299.115692 272.242188,310.420441   C270.840637,319.609802 269.415863,328.807861 268.137756,338.012878   C266.588043,349.174103 264.922272,360.320312 263.452972,371.493256   C262.970703,375.160614 265.585449,374.546356 267.652771,374.546295   C281.630707,374.545898 295.608704,374.539368 309.586609,374.564850   C311.888184,374.569031 314.272186,374.213226 316.718079,375.826050   C320.430511,379.442444 318.312622,383.001129 317.223145,386.792664   C316.642426,387.131531 316.304138,387.185516 315.721252,386.787628  z"/>
<path fill="#5B595A" opacity="1.000000" stroke="none" d=" M435.280548,156.818481   C434.544617,156.888779 434.266235,156.726761 433.906189,156.391876   C433.500366,153.675064 432.693726,152.327347 429.424164,152.336594   C371.623108,152.500229 313.821503,152.459839 256.020111,152.532959   C237.368744,152.556549 218.678162,152.063080 200.076218,153.088516   C175.680984,154.433304 154.529907,163.442688 138.646881,183.332138   C138.421951,179.739517 141.022125,177.536728 143.401031,175.348053   C147.057190,171.984238 150.937332,168.863876 154.938873,165.385010   C156.038742,161.911896 159.023666,161.524033 161.777527,160.246597   C162.070740,160.063095 161.989532,160.053741 162.025909,160.072861   C167.952347,157.339859 173.247101,152.935089 180.663177,153.741287   C181.548218,153.862793 182.105606,153.752808 182.859818,153.431396   C184.206696,151.685760 185.662888,150.781616 187.629517,150.515976   C194.879974,149.536636 202.074905,148.431015 209.460754,148.442047   C281.589569,148.549820 353.718628,148.501846 425.847595,148.526596   C428.312073,148.527435 430.868683,148.049301 433.591095,149.683960   C434.424500,150.270645 434.856689,150.565338 435.530457,150.961121   C437.595062,152.947311 437.430939,154.807465 435.280548,156.818481  z"/>
<path fill="#181516" opacity="1.000000" stroke="none" d=" M317.010742,375.683594   C299.226379,376.202271 281.412384,376.236664 263.600525,376.451019   C260.923767,376.483246 260.852966,375.205597 261.230042,373.382843   C264.956512,355.369843 266.160248,336.986908 269.161926,318.887573   C271.625458,304.033142 273.287384,289.071899 275.805450,274.231140   C276.298584,271.324860 277.398132,270.744629 279.967712,270.774902   C289.292816,270.884918 298.621887,270.957092 307.945129,270.794403   C312.812134,270.709473 315.908356,273.147644 318.541107,276.812744   C323.450897,283.647797 324.692108,291.824127 325.775269,299.671967   C327.613403,312.989594 328.132782,326.489227 329.238861,340.333191   C326.514221,342.853546 326.179504,340.525177 326.070923,338.776031   C325.865051,335.459167 326.019348,332.120880 325.993835,328.791718   C325.959869,324.360962 326.721283,319.805420 323.575745,315.905121   C323.032501,315.231537 322.918060,313.965546 323.047485,313.034637   C324.213745,304.645050 321.379181,296.613892 320.866608,288.366730   C320.333557,279.789490 313.412811,273.997742 304.893494,273.996979   C297.735413,273.996338 290.574982,274.104126 283.420319,273.947723   C280.380005,273.881287 279.353973,274.663300 278.826385,278.000977   C277.714630,285.033813 277.893677,292.534882 276.317688,299.002747   C273.398773,310.981964 273.047058,323.108490 270.952087,335.061249   C269.037170,345.986786 266.031860,356.723816 265.918457,367.953064   C265.879730,371.786987 266.829956,373.167786 270.913025,373.094543   C284.725342,372.846741 298.545044,372.970184 312.361481,373.039490   C314.130127,373.048340 316.641205,372.049713 317.010742,375.683594  z"/>
<path fill="#181516" opacity="1.000000" stroke="none" d=" M433.935974,149.585846   C359.660553,149.988373 285.328735,150.000565 210.996948,150.013474   C201.830612,150.015060 192.756134,150.835785 183.449036,153.146362   C182.948669,151.474838 183.146866,149.087265 185.065643,149.303787   C189.870255,149.845993 193.862946,146.944199 198.520905,146.948425   C274.987823,147.017731 351.454834,146.989182 427.921783,147.029129   C430.077454,147.030258 432.783630,146.053238 433.935974,149.585846  z"/>
<path fill="#181516" opacity="1.000000" stroke="none" d=" M315.048462,386.358887   C315.706787,386.501007 315.936951,386.666229 316.573883,386.954529   C317.414307,390.154236 316.032654,391.055206 313.022278,391.050415   C266.167297,390.975769 219.311646,391.088806 172.458099,390.819519   C168.723236,390.798035 164.041290,391.500427 161.009750,387.210846   C161.017548,386.355804 161.202698,385.929260 161.762909,385.315613   C162.760666,385.036469 163.492783,384.991913 164.578049,385.055115   C166.283264,386.635437 167.931885,386.811371 170.087402,386.188629   C172.362808,386.001190 174.296677,385.894104 176.575272,386.295166   C222.823288,386.398773 268.721771,386.390381 315.048462,386.358887  z"/>
<path fill="#181516" opacity="1.000000" stroke="none" d=" M283.339752,226.019119   C284.385468,214.708313 285.680359,203.356216 287.396912,192.068207   C288.763885,183.079117 289.149536,173.950836 291.516052,165.085556   C292.247742,162.344482 293.316284,161.764160 295.879730,161.772766   C320.865784,161.856552 345.854645,161.635071 370.836975,161.951431   C377.514252,162.036011 383.707642,164.618134 388.086090,170.575531   C387.279938,170.730942 386.311462,170.753845 385.717621,170.293488   C378.354248,164.585159 369.800354,164.855118 361.128448,164.937439   C341.177124,165.126862 321.222778,164.995697 301.269653,164.997742   C294.144867,164.998474 293.713867,166.000107 292.837860,172.881744   C292.039307,179.155029 293.154724,185.803207 289.430206,191.691650   C287.882050,194.139328 290.117310,197.295670 289.673492,199.922440   C288.362335,207.682861 286.146484,215.300476 286.965820,223.310059   C287.203217,225.630981 285.647949,226.066956 283.339752,226.019119  z"/>
<path fill="#5B595A" opacity="1.000000" stroke="none" d=" M147.958344,250.423767   C156.752182,253.922852 165.412827,258.108887 174.983795,259.785400   C175.519882,259.879303 175.971924,260.452881 177.196426,261.326294   C170.576035,263.790527 164.222763,263.667297 158.209946,265.073303   C137.222748,269.980988 117.821686,277.862457 104.581421,295.963654   C91.361557,314.036987 89.020302,341.991180 106.285645,361.317322   C103.148018,362.335052 102.197189,359.267273 101.222191,357.742462   C94.658440,347.477356 90.379517,336.449188 92.165665,323.478516   C90.193390,317.304871 92.261810,311.966827 94.397690,306.870422   C97.285545,299.979706 100.828323,293.371460 107.075066,288.252075   C107.668488,288.057220 107.850006,287.939911 108.037552,287.587494   C111.055748,283.190063 115.071785,280.181000 119.794342,277.885803   C120.698586,277.657928 121.316116,277.206543 122.095810,276.512024   C126.833755,271.117523 133.013733,269.188385 139.741211,267.933746   C140.944778,268.090515 141.673920,267.771606 142.190582,266.634399   C143.001938,265.066772 144.078461,265.078583 145.629562,265.731628   C147.345688,265.833008 148.884750,266.437469 150.018890,264.663147   C154.688446,261.133911 160.024200,260.807800 164.534119,260.259155   C162.679291,259.917389 160.001816,259.795868 157.350677,258.173706   C157.083939,257.906433 157.013016,257.937042 157.046936,257.929565   C155.984055,256.920166 154.354507,256.698090 153.215500,255.206116   C152.086288,252.647415 148.453384,253.593338 147.958344,250.423767  z"/>
<path fill="#1A1718" opacity="1.000000" stroke="none" d=" M345.239471,320.985779   C345.405151,309.606720 347.824066,298.406372 349.349731,287.089661   C351.783203,269.039124 354.362762,251.008179 356.925293,232.975311   C357.834076,226.579803 358.873566,220.202881 359.887421,213.394287   C364.257538,216.293121 362.241516,221.077377 361.595612,224.717575   C360.602203,230.316345 361.442352,236.403152 359.634003,241.348175   C356.738525,249.266068 358.349060,257.762482 355.124023,265.257355   C353.777039,268.387695 354.970367,271.057800 354.588074,273.919891   C353.482117,282.200470 351.615479,290.347534 350.587189,298.667786   C349.906036,304.179199 349.098328,309.665436 349.005005,315.236969   C348.961884,317.812988 347.636932,319.558380 345.239471,320.985779  z"/>
<path fill="#1A1718" opacity="1.000000" stroke="none" d=" M434.890350,157.430176   C435.878235,155.402618 436.104034,153.658569 435.828735,151.444183   C440.099945,150.888870 440.878052,152.958176 438.769653,156.279358   C437.553589,158.194916 436.924347,160.039658 436.969604,162.309021   C437.196686,173.697189 435.310547,184.772141 432.369904,195.767166   C431.056976,200.676224 432.371521,205.981003 431.062256,211.067856   C428.525024,220.925980 428.287964,231.132538 426.962921,241.176483   C426.764893,242.677750 426.064178,243.634048 424.108490,243.908127   C424.636932,232.030975 426.751068,220.303101 428.463348,208.517044   C430.150391,196.904755 431.542847,185.247055 432.887390,173.588837   C433.492950,168.337936 435.198822,163.231537 434.890350,157.430176  z"/>
<path fill="#181516" opacity="1.000000" stroke="none" d=" M320.709534,252.073853   C318.645172,257.220367 313.585846,258.496521 308.885895,258.801453   C299.648865,259.400818 290.346436,258.977448 281.071198,259.013367   C278.804596,259.022125 277.894989,258.498596 278.340424,255.797073   C279.838501,246.711166 280.982269,237.566833 282.513031,228.105011   C285.239014,232.111313 284.662262,237.034027 283.447998,241.183777   C282.359802,244.902847 282.519165,248.684875 281.412659,252.299469   C280.582550,255.011108 282.183014,255.963379 284.562927,255.972275   C293.519958,256.005707 302.477722,256.046509 311.433990,255.958069   C314.875214,255.924103 316.852722,252.217163 320.709534,252.073853  z"/>
<path fill="#181516" opacity="1.000000" stroke="none" d=" M393.040710,176.340363   C397.878967,181.003769 400.110870,187.463867 401.928894,193.911636   C406.486237,210.074799 409.643127,226.559158 412.117981,243.568802   C409.264801,244.316971 409.141144,242.540009 408.940643,240.281067   C408.250977,232.510376 405.286072,225.087509 404.607574,217.410950   C404.102570,211.697296 401.811584,206.628128 400.937347,201.124893   C399.974274,195.062439 397.669373,189.390411 394.973877,183.876099   C393.885376,181.649292 392.910889,179.330750 393.040710,176.340363  z"/>
<path fill="#5B595A" opacity="1.000000" stroke="none" d=" M137.643402,184.005005   C136.830658,186.521591 135.603653,189.018555 134.510971,191.572998   C127.315025,208.395493 127.269272,224.737000 137.903534,240.689758   C135.783676,241.462509 135.015167,239.824158 134.170502,238.435379   C123.337097,220.623459 126.275536,201.100327 136.044586,184.788071   C136.268311,184.414505 136.867310,184.265656 137.643402,184.005005  z"/>
<path fill="#181516" opacity="1.000000" stroke="none" d=" M159.277649,386.468384   C153.664261,388.874359 148.537521,388.345459 143.087555,386.165314   C135.437393,383.105072 127.369904,381.087860 120.103981,377.039673   C118.565155,376.182312 116.544853,375.866974 116.346405,373.094238   C121.189987,371.863434 124.148232,375.428619 127.889351,376.932678   C137.634155,380.850555 147.632370,383.519196 158.479660,384.547241   C159.285995,385.057556 159.483704,385.534210 159.277649,386.468384  z"/>
<path fill="#171516" opacity="1.000000" stroke="none" d=" M107.048935,288.085754   C104.257706,293.275299 99.936188,297.682281 97.253105,303.199249   C94.323082,309.223938 93.090248,315.684265 92.223625,322.666992   C87.816109,320.540985 89.731903,316.405823 90.548447,313.445892   C92.718590,305.579163 96.822815,298.480255 101.688431,291.922302   C102.902252,290.286285 104.253189,288.374756 107.048935,288.085754  z"/>
<path fill="#191718" opacity="1.000000" stroke="none" d=" M361.193176,208.223145   C361.508850,202.318649 362.160736,196.633926 362.760925,190.532623   C363.906006,189.765350 365.097046,188.413574 366.334564,189.536758   C367.625061,190.708069 366.500153,192.018326 365.914734,193.107498   C364.489288,195.759506 365.090118,198.593658 365.031189,201.355637   C364.985016,203.518784 365.121735,205.663925 363.180054,207.657684   C362.581848,208.381943 362.090820,208.529541 361.193176,208.223145  z"/>
<path fill="#171516" opacity="1.000000" stroke="none" d=" M139.992401,267.783295   C133.977539,270.000427 128.512924,273.177917 122.598389,276.194611   C120.822937,275.262665 121.450752,274.520844 122.452782,273.591827   C127.033813,269.344666 133.123993,268.433044 138.617249,266.216461   C139.271484,265.952484 139.694107,266.782562 139.992401,267.783295  z"/>
<path fill="#171516" opacity="1.000000" stroke="none" d=" M157.042206,258.316040   C160.565704,257.222809 163.359589,258.949554 167.028473,260.723083   C161.169907,261.988831 156.049118,263.095184 150.523972,264.264587   C149.068558,262.299561 149.001282,261.000732 151.956284,260.934723   C153.803131,260.893494 156.541885,262.190948 157.042206,258.316040  z"/>
<path fill="#181516" opacity="1.000000" stroke="none" d=" M180.907974,153.594620   C174.488403,154.677536 169.052963,158.560867 162.441772,160.082031   C162.043777,158.850739 162.401367,157.657822 163.659164,157.340775   C167.175919,156.454330 170.092468,154.507034 173.184021,152.736450   C175.432526,151.448715 178.415054,150.968002 180.907974,153.594620  z"/>
<path fill="#1A1718" opacity="1.000000" stroke="none" d=" M341.236694,342.955994   C341.631866,338.481934 342.443420,334.012604 343.480591,329.230591   C344.321869,328.617737 344.689941,327.966614 345.682434,327.874390   C346.910767,332.765747 344.706390,337.039062 343.857117,341.526245   C343.626373,342.745361 342.653748,342.890381 341.236694,342.955994  z"/>
<path fill="#181516" opacity="1.000000" stroke="none" d=" M328.720306,241.084198   C329.108032,246.372101 325.770233,249.439728 321.414368,252.075958   C321.647308,247.199860 325.556244,244.518494 328.720306,241.084198  z"/>
<path fill="#171516" opacity="1.000000" stroke="none" d=" M119.871140,277.828003   C116.311394,281.132965 112.541748,284.156647 108.433517,287.306091   C109.622871,282.318542 114.937370,277.776489 119.871140,277.828003  z"/>
<path fill="#181516" opacity="1.000000" stroke="none" d=" M116.079895,372.913513   C110.741608,372.606964 107.613022,369.991699 107.043762,365.090515   C107.521690,364.415955 108.015045,364.332214 108.899757,364.572754   C109.259605,364.711456 109.056404,364.936768 109.170532,364.836823   C110.975372,367.859314 115.240929,368.420685 116.402122,372.321472   C116.313469,372.661255 116.157761,372.829407 116.079895,372.913513  z"/>
<path fill="#171415" opacity="1.000000" stroke="none" d=" M336.727661,225.088013   C337.564117,229.675217 334.029999,232.782028 332.368866,236.886566   C331.599731,232.396362 333.023071,228.413330 336.727661,225.088013  z"/>
<path fill="#181516" opacity="1.000000" stroke="none" d=" M161.660690,160.040955   C160.892990,162.890091 157.466461,162.718430 155.446930,164.970795   C154.228333,162.083801 156.300110,160.346619 161.660690,160.040955  z"/>
<path fill="#181516" opacity="1.000000" stroke="none" d=" M388.077820,171.275787   C390.699738,171.243729 392.054352,173.047653 393.083130,175.586639   C390.382233,175.705673 389.001953,173.936676 388.077820,171.275787  z"/>
<path fill="#1A1718" opacity="1.000000" stroke="none" d=" M346.033234,327.660797   C345.443451,328.268524 344.885712,328.537018 344.017059,328.861694   C343.961548,327.134949 344.216919,325.352020 344.628082,323.210266   C347.205231,323.769836 346.848083,325.484711 346.033234,327.660797  z"/>
<path fill="#181516" opacity="1.000000" stroke="none" d=" M331.696045,237.052887   C332.220245,238.922089 331.796082,240.464188 329.437744,241.100006   C329.146637,239.363907 328.295837,237.138168 331.696045,237.052887  z"/>
<path fill="#171516" opacity="1.000000" stroke="none" d=" M153.007843,255.367584   C154.662506,255.176758 156.270630,255.486130 157.092789,257.569702   C155.379776,257.852417 153.194626,258.689850 153.007843,255.367584  z"/>
<path fill="#5B595A" opacity="1.000000" stroke="none" d=" M142.964966,246.398621   C145.059708,246.098495 145.932526,247.878494 147.321640,249.375305   C144.987946,250.135757 143.971710,248.448502 142.964966,246.398621  z"/>
<path fill="#171516" opacity="1.000000" stroke="none" d=" M145.925369,265.615173   C145.000885,266.068359 144.011505,266.166107 142.655197,266.300171   C141.743011,265.798981 140.810593,265.041229 141.788467,264.484253   C143.169601,263.697601 144.815048,263.395721 145.925369,265.615173  z"/>
<path fill="#5B595A" opacity="1.000000" stroke="none" d=" M138.916565,242.467834   C140.847290,242.481644 141.689362,244.148956 142.932129,245.699677   C140.585052,246.274506 138.970993,245.541275 138.916565,242.467834  z"/>
<path fill="#585656" opacity="1.000000" stroke="none" d=" M159.406067,386.848572   C159.052490,386.509827 158.997452,386.188904 158.894028,385.627563   C158.719833,385.178345 158.585678,384.970947 158.725235,384.513855   C159.857925,384.369995 160.716919,384.475861 161.802246,384.831360   C161.837906,385.579865 161.647247,386.078735 161.199097,386.703674   C160.532043,386.841522 160.122482,386.853271 159.406067,386.848572  z"/>
<path fill="#5B595A" opacity="1.000000" stroke="none" d=" M109.258675,364.384613   C108.769905,364.761475 108.280212,364.811523 107.425186,364.773468   C106.748421,363.893646 106.436966,363.101898 106.236862,362.000854   C107.838875,361.839874 108.442062,363.079468 109.258675,364.384613  z"/>
<path fill="#171415" opacity="1.000000" stroke="none" d=" M338.929871,222.085449   C339.105804,223.195343 338.690186,224.196228 337.369141,224.959198   C337.057861,223.831390 336.772675,222.449280 338.929871,222.085449  z"/>
<path fill="#1A1718" opacity="1.000000" stroke="none" d=" M360.840393,208.346024   C361.334259,208.002304 361.811523,208.001251 362.645630,208.000092   C362.923462,208.964172 362.615143,209.754822 361.185608,210.008499   C360.839142,209.605194 360.831512,209.146942 360.840393,208.346024  z"/>
<path fill="#312E2F" opacity="1.000000" stroke="none" d=" M181.514221,251.515442   C168.425369,241.836212 167.071442,228.323746 168.502106,214.094635   C169.896637,200.224899 173.156143,186.963318 181.988632,175.532120   C190.689209,164.271652 202.595352,160.268631 216.015808,159.575226   C223.825027,159.171738 231.677490,159.667007 239.497971,159.396164   C244.172638,159.234268 244.190399,161.686203 243.691910,165.099136   C241.213150,182.069778 238.781143,199.047409 236.390610,216.030746   C234.557480,229.054245 232.760315,242.083359 231.070099,255.125916   C230.753342,257.570160 230.044556,259.556580 227.370529,259.564453   C211.738541,259.610474 195.926102,260.562317 181.514221,251.515442  z"/>
<path fill="#514E4F" opacity="1.000000" stroke="none" d=" M171.553741,376.438354   C165.253632,374.624542 159.231781,373.397461 153.815598,370.198181   C143.024200,363.823975 137.432617,354.023193 136.405670,342.029236   C134.899994,324.444153 138.049637,307.406189 146.710815,291.927490   C155.724640,275.818573 171.021423,269.372620 188.529694,267.532837   C200.802185,266.243225 213.164520,267.273132 225.482407,266.968750   C228.902863,266.884247 229.186218,268.833069 228.810745,271.550995   C226.877335,285.546112 225.082657,299.560608 223.108078,313.549774   C220.296600,333.468140 217.273987,353.357208 214.573654,373.290253   C214.018188,377.390472 212.569016,378.998322 208.262146,378.930298   C196.112366,378.738464 183.952744,379.023560 171.553741,376.438354  z"/>
<path fill="#5B595A" opacity="1.000000" stroke="none" d=" M158.664017,384.048889   C158.981277,384.451385 158.963608,384.638580 158.899963,385.105743   C144.920410,384.571747 131.851608,380.848328 119.752930,373.817871   C118.917793,373.332550 117.929794,373.110229 116.663177,372.713440   C114.882484,369.291962 110.292313,369.069946 109.202927,365.089325   C119.013496,371.455688 129.188141,377.280670 140.826492,380.033447   C146.635330,381.407410 152.493332,382.573486 158.664017,384.048889  z"/>
<path fill="#585656" opacity="1.000000" stroke="none" d=" M170.213425,386.770386   C167.975555,388.097198 165.985428,389.047974 164.903870,385.528687   C166.336700,384.336517 167.774750,384.846527 169.591888,385.264709   C170.314209,385.751556 170.455719,386.113708 170.213425,386.770386  z"/>
<path fill="#5B595A" opacity="1.000000" stroke="none" d=" M170.406036,387.044922   C169.993851,386.655396 169.989349,386.316467 169.981567,385.724182   C172.191483,385.046875 174.388824,385.105682 176.746857,386.047485   C175.042725,388.012177 172.852921,386.885468 170.406036,387.044922  z"/>
<path fill="#241F21" opacity="1.000000" stroke="none" d=" M172.967606,225.885468   C171.589890,215.550995 173.793442,205.801407 176.460556,196.741470   C179.744522,185.586075 184.889786,174.667160 196.534210,168.763046   C200.130676,166.939545 204.086960,165.714828 207.610535,165.308090   C216.290070,164.306091 225.085342,163.402451 233.911835,163.916260   C236.885590,164.089371 238.404739,165.290543 237.986023,168.178055   C236.673233,177.230957 237.033249,186.564362 233.536743,195.258682   C233.352859,195.715912 233.049683,196.234772 233.123901,196.670090   C234.809601,206.557022 228.917465,215.824722 230.282379,225.402832   C231.388412,233.164230 227.102676,239.730331 227.657532,247.355026   C228.062164,252.915405 222.399933,255.751572 216.368820,254.947128   C210.481720,254.161896 204.518082,253.901291 198.659592,252.963409   C191.833145,251.870560 184.765472,250.233154 180.345062,244.605591   C176.277679,239.427429 171.786118,233.899124 172.967606,225.885468  z"/>
<path fill="#231F21" opacity="1.000000" stroke="none" d=" M142.858337,307.220978   C142.782196,306.797089 142.799820,306.414001 142.851898,306.229431   C144.093643,304.891541 145.323242,303.818970 145.838135,302.107208   C149.517593,289.874725 158.106705,281.861145 168.863327,275.888000   C171.571243,274.384277 174.887177,273.560181 177.851074,273.273773   C191.676971,271.937866 205.360397,268.653564 219.410828,269.980225   C222.480347,270.270050 224.307053,271.775238 224.156876,274.602020   C223.930710,278.858612 224.769196,283.280487 222.712311,287.355743   C222.191040,288.388489 221.691544,289.532867 221.718338,290.686554   C221.947754,300.564636 219.610306,310.170166 218.230408,319.832581   C216.876465,329.313324 215.902573,338.862762 214.167084,348.304321   C212.972748,354.801971 212.788879,361.462372 211.401138,367.965668   C210.325272,373.007446 209.297592,374.263062 204.213303,374.385498   C195.233047,374.601685 186.024155,375.543579 177.340683,373.683960   C167.542297,371.585571 157.042099,370.221375 149.160980,362.778137   C145.018051,358.865387 142.644791,353.713074 141.537613,348.414825   C139.350006,337.946564 139.300568,327.337036 142.665878,316.982880   C143.682755,313.854248 143.668976,310.781036 142.858337,307.220978  z"/>
<path fill="#181516" opacity="1.000000" stroke="none" d=" M142.544510,307.117035   C146.148041,310.381561 145.784210,314.503113 143.682175,318.285004   C142.378265,320.630951 141.772766,322.845764 142.020493,325.355652   C142.637360,331.605408 140.583466,337.837067 141.984726,344.089600   C143.739548,351.919678 145.982391,359.155548 153.351761,364.125519   C158.875305,367.850677 165.255325,368.063293 170.860764,370.385010   C182.125534,375.050751 193.430527,371.765503 204.608231,373.006866   C208.153198,373.400574 209.250671,371.733856 210.131866,368.345612   C212.498230,359.246735 210.703110,349.468872 214.862961,340.717468   C214.997391,340.434662 215.012039,340.050903 214.964355,339.731903   C213.577225,330.448975 216.520157,321.471344 217.745667,312.508392   C218.796875,304.820251 218.846573,296.954285 220.501801,289.531647   C221.567810,284.751312 223.083572,280.164032 223.033051,275.167908   C223.003128,272.209595 221.813843,270.816040 218.843918,271.005127   C209.817688,271.579895 200.567200,269.356384 191.799759,273.456512   C190.118729,274.242676 187.877167,274.042908 185.907394,273.964905   C171.827438,273.407166 161.573090,280.241241 153.135284,290.703705   C150.117783,294.445221 147.617599,298.409485 146.927170,303.295746   C146.668213,305.128357 145.081284,305.455048 143.287994,305.992218   C146.705017,293.545959 153.153305,283.046570 164.982117,276.532898   C172.564087,272.357758 180.938156,271.241974 189.289429,269.893768   C200.711044,268.049927 212.204178,269.353668 223.652145,268.857025   C226.459106,268.735260 226.683640,269.664581 226.296371,272.394104   C223.364304,293.060089 220.679443,313.755432 217.431015,334.383362   C215.424194,347.126892 214.186829,360.006775 212.220215,372.779022   C211.828384,375.323822 211.060516,376.178894 208.535721,376.151123   C197.399002,376.028381 186.118881,377.031067 175.193405,374.870483   C166.207672,373.093506 156.953888,371.157379 149.523636,364.850281   C142.108337,358.555847 139.634888,350.139526 138.929825,340.975159   C138.055664,329.612946 139.682343,318.465912 142.544510,307.117035  z"/>
</svg>